<svg xmlns="http://www.w3.org/2000/svg" viewBox="0 0 120 81" xmlns:v="https://vecta.io/nano"><path d="M27.77 76h32.5v5h-35v-2.5a2.5 2.5 0 0 1 2.5-2.5z" fill="#e1ebf0"/><g fill="#b4d2d7"><path d="M60 76h33.5a2.5 2.5 0 0 1 2.5 2.5V81H60v-5z"/><path d="M50 68h10v8H50z"/></g><path d="M60 68h10v8H60z" fill="#87a0af"/><path d="M1 0h60v54.5H0V1a1 1 0 0 1 1-1z" fill="#07485e"/><path d="M60 0h59a1 1 0 0 1 1 1v53.5H60V0z" fill="#03232e"/><path d="M0 54.127h60v14H1a1 1 0 0 1-1-1v-13z" fill="#e1ebf0"/><path d="M60 54.127h60v13a1 1 0 0 1-1 1H60v-14z" fill="#b4d2d7"/><path d="M7 10h14v5H7zm22 0h31v5H29z" fill="#00ff94"/><path d="M60 10h31v5H60zm37 0h14v5H97z" fill="#00cc76"/><path d="M7 26h45v5H7z" fill="#00ff94"/><path d="M66 26h45v5H66z" fill="#00cc76"/><path d="M7 41h14v5H7zm22 0h31v5H29z" fill="#00ff94"/><path d="M60 41h31v5H60zm37 0h14v5H97z" fill="#00cc76"/></svg>