<?xml version="1.0" encoding="utf-8"?>
<svg viewBox="318.129 209.065 512 303.824" xmlns="http://www.w3.org/2000/svg">
  <path style="fill:#F58E42;" d="M438.857,104.088H73.143C32.812,104.088,0,136.9,0,177.231v67.516h512v-67.516 C512,136.9,479.188,104.088,438.857,104.088z" transform="matrix(1, 0, 0, 1, 318.129094, 104.976877)"/>
  <path style="fill:#F16831;" d="M438.857,171.604c-13.385,0-25.908,3.758-36.571,10.276c-10.663-6.518-23.186-10.276-36.571-10.276 s-25.908,3.758-36.571,10.276c-10.663-6.518-23.186-10.276-36.571-10.276S266.663,175.363,256,181.88 c-10.663-6.518-23.186-10.276-36.571-10.276c-13.385,0-25.908,3.758-36.571,10.276c-10.663-6.518-23.186-10.276-36.571-10.276 s-25.908,3.758-36.571,10.276c-10.663-6.518-23.186-10.276-36.571-10.276C32.812,171.604,0,204.416,0,244.747 c0,18.567,15.191,33.758,33.758,33.758h444.484c18.567,0,33.758-15.191,33.758-33.758C512,204.416,479.188,171.604,438.857,171.604z " transform="matrix(1, 0, 0, 1, 318.129094, 104.976877)"/>
  <g transform="matrix(1, 0, 0, 1, 318.129094, 104.976877)">
    <path style="fill:#F1ECDE;" d="M219.429,205.363c-20.198,0-36.571,16.374-36.571,36.571l-22.505,32.352l22.505,32.352H256 l22.505-32.352L256,241.934C256,221.737,239.626,205.363,219.429,205.363z"/>
    <path style="fill:#F1ECDE;" d="M402.286,241.934c0-20.198-16.374-36.571-36.571-36.571c-20.198,0-36.571,16.374-36.571,36.571 l-22.505,32.352l22.505,32.352h95.648L402.286,241.934z"/>
  </g>
  <g transform="matrix(1, 0, 0, 1, 318.129094, 104.976877)">
    <path style="fill:#E2D8BD;" d="M292.571,205.363c-20.198,0-36.571,16.374-36.571,36.571v64.703h73.143v-64.703 C329.143,221.737,312.769,205.363,292.571,205.363z"/>
    <path style="fill:#E2D8BD;" d="M146.286,205.363c-20.198,0-36.571,16.374-36.571,36.571l-22.506,64.703h95.648v-64.703 C182.857,221.737,166.483,205.363,146.286,205.363z"/>
    <path style="fill:#E2D8BD;" d="M438.857,205.363c-20.198,0-36.571,16.374-36.571,36.571v165.978c0,0,73.143-51.746,73.143-165.978 C475.429,221.737,459.055,205.363,438.857,205.363z"/>
  </g>
  <path style="fill:#F1ECDE;" d="M73.143,205.363c-20.198,0-36.571,16.374-36.571,36.571c0,114.232,73.143,165.978,73.143,165.978 V241.934C109.714,221.737,93.34,205.363,73.143,205.363z" transform="matrix(1, 0, 0, 1, 318.129094, 104.976877)"/>
</svg>