<?xml version="1.0" encoding="utf-8"?>
<svg viewBox="297.102 155.345 512 181.176" xmlns="http://www.w3.org/2000/svg">
  <rect x="122.611" y="169.139" style="fill:#394049;" width="266.789" height="15.975" transform="matrix(1, 0, 0, 1, 297.102482, -10.066926)"/>
  <g transform="matrix(1, 0, 0, 1, 297.102482, -10.066926)">
    <path style="fill:#C2DCE0;" d="M210.029,305.939l-4.121-0.903c-7.728-1.693-12.618-9.33-10.925-17.058l6.254-28.532 c1.693-7.728,9.33-12.618,17.058-10.925l4.121,0.903c7.728,1.693,12.618,9.33,10.925,17.058l-6.254,28.532 C225.394,302.742,217.757,307.633,210.029,305.939z"/>
    <path style="fill:#C2DCE0;" d="M301.971,305.939l4.121-0.903c7.728-1.693,12.619-9.33,10.925-17.058l-6.254-28.532 c-1.693-7.728-9.33-12.618-17.058-10.925l-4.121,0.903c-7.728,1.693-12.618,9.33-10.925,17.058l6.253,28.532 C286.606,302.742,294.243,307.632,301.971,305.939z"/>
  </g>
  <path style="opacity:0.2;enable-background:new    ;" d="M317.018,287.979l-6.254-28.532c-1.693-7.728-9.33-12.618-17.058-10.925 l-4.121,0.903c-0.709,0.155-1.386,0.377-2.045,0.628c4.764,20.845,13.311,38.226,24.27,52.288 C316.026,299.058,318.238,293.548,317.018,287.979z" transform="matrix(1, 0, 0, 1, 297.102482, -10.066926)"/>
  <path style="opacity:0.2;enable-background:new    ;" d="M194.982,287.979l6.254-28.532c1.693-7.728,9.33-12.618,17.058-10.925 l4.121,0.903c0.709,0.155,1.386,0.377,2.045,0.628c-4.764,20.845-13.311,38.226-24.27,52.288 C195.974,299.058,193.762,293.548,194.982,287.979z" transform="matrix(1, 0, 0, 1, 297.102482, -10.066926)"/>
  <path style="fill:#5F666F;" d="M122.604,177.125c-52.266,0-90.957,2.715-90.957,52.266s6.788,117.196,63.127,117.196 s122.18-43.21,122.18-137.464C216.954,178.483,157.188,177.125,122.604,177.125z" transform="matrix(1, 0, 0, 1, 297.102482, -10.066926)"/>
  <path style="opacity:0.2;fill:#FFFFFF;enable-background:new    ;" d="M122.604,177.125c-52.266,0-90.957,2.715-90.957,52.266 c0,21.891,1.328,47.311,7.666,68.871l119.933-119.933C146.298,177.255,133.256,177.125,122.604,177.125z" transform="matrix(1, 0, 0, 1, 297.102482, -10.066926)"/>
  <path style="fill:#5F666F;" d="M389.396,177.125c52.266,0,90.957,2.715,90.957,52.266s-6.788,117.196-63.127,117.196 s-122.18-43.21-122.18-137.464C295.046,178.483,354.811,177.125,389.396,177.125z" transform="matrix(1, 0, 0, 1, 297.102482, -10.066926)"/>
  <path style="opacity:0.2;fill:#FFFFFF;enable-background:new    ;" d="M476.218,205.657L353.883,327.991 c19.809,12.535,42.241,18.597,63.343,18.597c56.339,0,63.127-67.646,63.127-117.196 C480.353,219.843,478.911,212.041,476.218,205.657z" transform="matrix(1, 0, 0, 1, 297.102482, -10.066926)"/>
  <path style="fill:#394049;" d="M285.353,237.217c-1.042-0.9-2.17-1.959-3.478-3.185c-6.055-5.68-16.191-15.187-25.875-15.187 s-19.819,9.506-25.875,15.187c-1.308,1.226-2.437,2.285-3.478,3.185l-10.443-12.09c0.794-0.686,1.813-1.641,2.993-2.748 c7.78-7.297,20.8-19.509,36.804-19.509s29.024,12.212,36.804,19.509c1.179,1.107,2.198,2.062,2.993,2.748L285.353,237.217z" transform="matrix(1, 0, 0, 1, 297.102482, -10.066926)"/>
  <path style="opacity:0.2;enable-background:new    ;" d="M122.604,177.125c34.585,0,94.35,1.358,94.35,32 c0,12.12-1.096,23.388-3.113,33.836c-2.776-8.854-5.9-17.969-5.9-26.316c0-8.79-14.032-13.574-25.803-16.04 c-17.855-3.739-40.143-4.244-59.592-4.244c-55.063,0-77.201,4.707-81.203,30.654c-0.268,1.738-5.386,5.291-9.657,8.675 c-0.027-2.126-0.04-4.229-0.04-6.298C31.647,179.84,70.338,177.125,122.604,177.125z" transform="matrix(1, 0, 0, 1, 297.102482, -10.066926)"/>
  <path style="fill:#394049;" d="M208.93,273.578c-1.227,0-2.474-0.194-3.702-0.603c-6.139-2.044-9.458-8.676-7.415-14.815 c4.927-14.803,7.426-31.302,7.426-49.036c0-8.79-13.579-13.575-24.97-16.04c-17.278-3.739-38.847-4.244-57.667-4.244 c-59.456,0-79.241,5.862-79.241,40.551c0,6.47-5.245,11.715-11.715,11.715s-11.715-5.245-11.715-11.715 c0-27.535,11.11-46.207,33.02-55.499c18.493-7.843,42.485-8.48,69.651-8.48c20.059,0,43.186,0.568,62.623,4.774 c19.818,4.29,43.443,14.527,43.443,38.939c0,20.255-2.902,39.242-8.625,56.437C218.409,270.471,213.837,273.578,208.93,273.578z" transform="matrix(1, 0, 0, 1, 297.102482, -10.066926)"/>
  <path style="opacity:0.2;enable-background:new    ;" d="M389.396,177.125c-34.585,0-94.35,1.358-94.35,32 c0,12.12,1.096,23.388,3.113,33.836c2.776-8.854,5.9-17.969,5.9-26.316c0-8.79,14.032-13.574,25.803-16.04 c17.855-3.739,40.143-4.244,59.592-4.244c55.063,0,77.201,4.707,81.203,30.654c0.268,1.738,5.386,5.291,9.657,8.675 c0.027-2.126,0.04-4.229,0.04-6.298C480.353,179.84,441.662,177.125,389.396,177.125z" transform="matrix(1, 0, 0, 1, 297.102482, -10.066926)"/>
  <g transform="matrix(1, 0, 0, 1, 297.102482, -10.066926)">
    <path style="fill:#394049;" d="M303.07,273.578c1.227,0,2.474-0.194,3.702-0.603c6.139-2.044,9.458-8.676,7.415-14.815 c-4.927-14.803-7.426-31.302-7.426-49.036c0-8.79,13.579-13.575,24.97-16.04c17.278-3.739,38.847-4.244,57.667-4.244 c59.456,0,79.241,5.862,79.241,40.551c0,6.47,5.245,11.715,11.715,11.715s11.715-5.245,11.715-11.715 c0-27.535-11.11-46.207-33.02-55.499c-18.493-7.843-42.485-8.48-69.651-8.48c-20.059,0-43.186,0.568-62.623,4.774 c-19.818,4.29-43.443,14.527-43.443,38.939c0,20.255,2.902,39.242,8.625,56.437C293.59,270.471,298.162,273.578,303.07,273.578z"/>
    <path style="fill:#394049;" d="M28.556,216.817H7.987c-4.411,0-7.987-3.576-7.987-7.987c0-4.411,3.576-7.987,7.987-7.987h20.569 c4.411,0,7.987,3.576,7.987,7.987C36.544,213.24,32.968,216.817,28.556,216.817z"/>
    <path style="fill:#394049;" d="M504.013,216.817h-20.569c-4.411,0-7.987-3.576-7.987-7.987c0-4.411,3.576-7.987,7.987-7.987h20.569 c4.411,0,7.987,3.576,7.987,7.987C512,213.24,508.424,216.817,504.013,216.817z"/>
  </g>
</svg>